# xmcd
#
# Track frame offsets: 
#        150
#        16855
#        30237
#        53612
#        69445
#        87347
#        109245
#        130862
#        150445
#
# Disc length: 2300 seconds
#
# Revision: 0
# Processed by: cddbd v1.5.1PL0 Copyright (c) Steve Scherf et al.
# Submitted via: ExactAudioCopy v0.95a3
#
DISCID=6008fa09
DTITLE=12:01 - Gig Money
DYEAR=1998
DGENRE=Blues
TTITLE0=Walking With Mr. Lee
TTITLE1=Crosscut Saw
TTITLE2=The Thrill Is Gone
TTITLE3=Gig Money
TTITLE4=Tell Me Mama
TTITLE5=Personal Manager
TTITLE6=Please Stop Messin Round
TTITLE7=I Believe To My Soul
TTITLE8=High Cost Of Love
EXTD=
EXTT0=
EXTT1=
EXTT2=
EXTT3=
EXTT4=
EXTT5=
EXTT6=
EXTT7=
EXTT8=
PLAYORDER=
